<svg width="364" height="372" viewBox="0 0 364 372" fill="none" xmlns="http://www.w3.org/2000/svg">
<ellipse cx="182" cy="186" rx="182" ry="186" fill="#D9D9D9"/>
<ellipse cx="250.5" cy="157.287" rx="18.5" ry="19.6483" fill="#1E1E1E"/>
<g filter="url(#filter0_d_16_23)">
<path d="M207 62.0685L50.9977 186.812C50.4904 187.217 50.4984 187.991 51.0139 188.386L207 307.924" stroke="#141415" stroke-width="50" stroke-linecap="round"/>
</g>
<path d="M202.526 191.022C191.482 191.251 182.696 200.39 182.9 211.434C183.105 222.478 192.223 231.244 203.266 231.015L202.896 211.019L202.526 191.022ZM250.516 230.034C261.56 229.804 270.346 220.666 270.142 209.622C269.937 198.578 260.819 189.811 249.776 190.04L250.146 210.037L250.516 230.034ZM202.896 211.019L203.266 231.015C203.302 231.014 203.338 231.014 203.374 231.013C203.41 231.012 203.446 231.011 203.482 231.011C203.518 231.01 203.554 231.009 203.589 231.008C203.625 231.008 203.661 231.007 203.697 231.006C203.733 231.005 203.769 231.005 203.804 231.004C203.84 231.003 203.876 231.002 203.911 231.002C203.947 231.001 203.983 231 204.018 230.999C204.054 230.999 204.089 230.998 204.125 230.997C204.161 230.997 204.196 230.996 204.232 230.995C204.267 230.994 204.303 230.994 204.338 230.993C204.373 230.992 204.409 230.991 204.444 230.991C204.48 230.99 204.515 230.989 204.55 230.988C204.586 230.988 204.621 230.987 204.656 230.986C204.691 230.985 204.727 230.985 204.762 230.984C204.797 230.983 204.832 230.983 204.867 230.982C204.902 230.981 204.938 230.98 204.973 230.98C205.008 230.979 205.043 230.978 205.078 230.977C205.113 230.977 205.148 230.976 205.183 230.975C205.218 230.975 205.253 230.974 205.288 230.973C205.322 230.972 205.357 230.972 205.392 230.971C205.427 230.97 205.462 230.969 205.497 230.969C205.531 230.968 205.566 230.967 205.601 230.967C205.636 230.966 205.67 230.965 205.705 230.964C205.74 230.964 205.774 230.963 205.809 230.962C205.844 230.962 205.878 230.961 205.913 230.96C205.947 230.959 205.982 230.959 206.016 230.958C206.051 230.957 206.085 230.957 206.12 230.956C206.154 230.955 206.189 230.954 206.223 230.954C206.258 230.953 206.292 230.952 206.326 230.952C206.361 230.951 206.395 230.95 206.429 230.949C206.464 230.949 206.498 230.948 206.532 230.947C206.566 230.947 206.601 230.946 206.635 230.945C206.669 230.944 206.703 230.944 206.737 230.943C206.771 230.942 206.805 230.942 206.84 230.941C206.874 230.94 206.908 230.939 206.942 230.939C206.976 230.938 207.01 230.937 207.044 230.937C207.078 230.936 207.112 230.935 207.145 230.935C207.179 230.934 207.213 230.933 207.247 230.932C207.281 230.932 207.315 230.931 207.349 230.93C207.382 230.93 207.416 230.929 207.45 230.928C207.484 230.927 207.518 230.927 207.551 230.926C207.585 230.925 207.619 230.925 207.652 230.924C207.686 230.923 207.72 230.923 207.753 230.922C207.787 230.921 207.82 230.92 207.854 230.92C207.887 230.919 207.921 230.918 207.954 230.918C207.988 230.917 208.021 230.916 208.055 230.916C208.088 230.915 208.122 230.914 208.155 230.914C208.189 230.913 208.222 230.912 208.255 230.911C208.289 230.911 208.322 230.91 208.355 230.909C208.389 230.909 208.422 230.908 208.455 230.907C208.488 230.907 208.522 230.906 208.555 230.905C208.588 230.905 208.621 230.904 208.654 230.903C208.687 230.902 208.721 230.902 208.754 230.901C208.787 230.9 208.82 230.9 208.853 230.899C208.886 230.898 208.919 230.898 208.952 230.897C208.985 230.896 209.018 230.896 209.051 230.895C209.084 230.894 209.117 230.894 209.15 230.893C209.183 230.892 209.216 230.892 209.248 230.891C209.281 230.89 209.314 230.889 209.347 230.889C209.38 230.888 209.412 230.887 209.445 230.887C209.478 230.886 209.511 230.885 209.543 230.885C209.576 230.884 209.609 230.883 209.642 230.883C209.674 230.882 209.707 230.881 209.739 230.881C209.772 230.88 209.805 230.879 209.837 230.879C209.87 230.878 209.902 230.877 209.935 230.877C209.967 230.876 210 230.875 210.032 230.875C210.065 230.874 210.097 230.873 210.13 230.873C210.162 230.872 210.195 230.871 210.227 230.871C210.259 230.87 210.292 230.869 210.324 230.868C210.357 230.868 210.389 230.867 210.421 230.866C210.453 230.866 210.486 230.865 210.518 230.864C210.55 230.864 210.582 230.863 210.615 230.862C210.647 230.862 210.679 230.861 210.711 230.86C210.743 230.86 210.776 230.859 210.808 230.858C210.84 230.858 210.872 230.857 210.904 230.856C210.936 230.856 210.968 230.855 211 230.854C211.032 230.854 211.064 230.853 211.096 230.852C211.128 230.852 211.16 230.851 211.192 230.85C211.224 230.85 211.256 230.849 211.288 230.848C211.32 230.848 211.352 230.847 211.384 230.846C211.415 230.846 211.447 230.845 211.479 230.844C211.511 230.844 211.543 230.843 211.575 230.843C211.606 230.842 211.638 230.841 211.67 230.841C211.702 230.84 211.733 230.839 211.765 230.839C211.797 230.838 211.828 230.837 211.86 230.837C211.892 230.836 211.923 230.835 211.955 230.835C211.987 230.834 212.018 230.833 212.05 230.833C212.081 230.832 212.113 230.831 212.144 230.831C212.176 230.83 212.207 230.829 212.239 230.829C212.27 230.828 212.302 230.827 212.333 230.827C212.365 230.826 212.396 230.825 212.428 230.825C212.459 230.824 212.49 230.823 212.522 230.823C212.553 230.822 212.584 230.822 212.616 230.821C212.647 230.82 212.678 230.82 212.71 230.819C212.741 230.818 212.772 230.818 212.804 230.817C212.835 230.816 212.866 230.816 212.897 230.815C212.928 230.814 212.96 230.814 212.991 230.813C213.022 230.812 213.053 230.812 213.084 230.811C213.115 230.811 213.147 230.81 213.178 230.809C213.209 230.809 213.24 230.808 213.271 230.807C213.302 230.807 213.333 230.806 213.364 230.805C213.395 230.805 213.426 230.804 213.457 230.803C213.488 230.803 213.519 230.802 213.55 230.801C213.581 230.801 213.612 230.8 213.643 230.8C213.674 230.799 213.705 230.798 213.735 230.798C213.766 230.797 213.797 230.796 213.828 230.796C213.859 230.795 213.89 230.794 213.921 230.794C213.951 230.793 213.982 230.793 214.013 230.792C214.044 230.791 214.074 230.791 214.105 230.79C214.136 230.789 214.167 230.789 214.197 230.788C214.228 230.787 214.259 230.787 214.289 230.786C214.32 230.785 214.351 230.785 214.381 230.784C214.412 230.784 214.443 230.783 214.473 230.782C214.504 230.782 214.534 230.781 214.565 230.78C214.595 230.78 214.626 230.779 214.656 230.778C214.687 230.778 214.717 230.777 214.748 230.777C214.778 230.776 214.809 230.775 214.839 230.775C214.87 230.774 214.9 230.773 214.931 230.773C214.961 230.772 214.992 230.772 215.022 230.771C215.052 230.77 215.083 230.77 215.113 230.769C215.143 230.768 215.174 230.768 215.204 230.767C215.234 230.766 215.265 230.766 215.295 230.765C215.325 230.765 215.356 230.764 215.386 230.763C215.416 230.763 215.446 230.762 215.477 230.761C215.507 230.761 215.537 230.76 215.567 230.76C215.597 230.759 215.628 230.758 215.658 230.758C215.688 230.757 215.718 230.756 215.748 230.756C215.778 230.755 215.808 230.755 215.839 230.754C215.869 230.753 215.899 230.753 215.929 230.752C215.959 230.751 215.989 230.751 216.019 230.75C216.049 230.75 216.079 230.749 216.109 230.748C216.139 230.748 216.169 230.747 216.199 230.746C216.229 230.746 216.259 230.745 216.289 230.745C216.319 230.744 216.349 230.743 216.379 230.743C216.409 230.742 216.439 230.741 216.468 230.741C216.498 230.74 216.528 230.74 216.558 230.739C216.588 230.738 216.618 230.738 216.648 230.737C216.677 230.737 216.707 230.736 216.737 230.735C216.767 230.735 216.797 230.734 216.826 230.733C216.856 230.733 216.886 230.732 216.916 230.732C216.946 230.731 216.975 230.73 217.005 230.73C217.035 230.729 217.064 230.728 217.094 230.728C217.124 230.727 217.153 230.727 217.183 230.726C217.213 230.725 217.242 230.725 217.272 230.724C217.302 230.724 217.331 230.723 217.361 230.722C217.391 230.722 217.42 230.721 217.45 230.72C217.479 230.72 217.509 230.719 217.538 230.719C217.568 230.718 217.598 230.717 217.627 230.717C217.657 230.716 217.686 230.716 217.716 230.715C217.745 230.714 217.775 230.714 217.804 230.713C217.834 230.713 217.863 230.712 217.893 230.711C217.922 230.711 217.951 230.71 217.981 230.709C218.01 230.709 218.04 230.708 218.069 230.708C218.099 230.707 218.128 230.706 218.157 230.706C218.187 230.705 218.216 230.705 218.245 230.704C218.275 230.703 218.304 230.703 218.333 230.702C218.363 230.702 218.392 230.701 218.421 230.7C218.451 230.7 218.48 230.699 218.509 230.698C218.539 230.698 218.568 230.697 218.597 230.697C218.626 230.696 218.656 230.695 218.685 230.695C218.714 230.694 218.743 230.694 218.772 230.693C218.802 230.692 218.831 230.692 218.86 230.691C218.889 230.691 218.918 230.69 218.948 230.689C218.977 230.689 219.006 230.688 219.035 230.688C219.064 230.687 219.093 230.686 219.123 230.686C219.152 230.685 219.181 230.685 219.21 230.684C219.239 230.683 219.268 230.683 219.297 230.682C219.326 230.681 219.355 230.681 219.384 230.68C219.413 230.68 219.442 230.679 219.471 230.678C219.501 230.678 219.53 230.677 219.559 230.677C219.588 230.676 219.617 230.675 219.646 230.675C219.675 230.674 219.704 230.674 219.733 230.673C219.761 230.672 219.79 230.672 219.819 230.671C219.848 230.671 219.877 230.67 219.906 230.669C219.935 230.669 219.964 230.668 219.993 230.668C220.022 230.667 220.051 230.666 220.08 230.666C220.109 230.665 220.138 230.665 220.166 230.664C220.195 230.663 220.224 230.663 220.253 230.662C220.282 230.662 220.311 230.661 220.34 230.66C220.368 230.66 220.397 230.659 220.426 230.659C220.455 230.658 220.484 230.657 220.512 230.657C220.541 230.656 220.57 230.656 220.599 230.655C220.628 230.654 220.656 230.654 220.685 230.653C220.714 230.653 220.743 230.652 220.771 230.651C220.8 230.651 220.829 230.65 220.858 230.65C220.886 230.649 220.915 230.648 220.944 230.648C220.973 230.647 221.001 230.647 221.03 230.646C221.059 230.646 221.087 230.645 221.116 230.644C221.145 230.644 221.173 230.643 221.202 230.643C221.231 230.642 221.259 230.641 221.288 230.641C221.317 230.64 221.345 230.64 221.374 230.639C221.403 230.638 221.431 230.638 221.46 230.637C221.488 230.637 221.517 230.636 221.546 230.635C221.574 230.635 221.603 230.634 221.631 230.634C221.66 230.633 221.689 230.632 221.717 230.632C221.746 230.631 221.774 230.631 221.803 230.63C221.831 230.629 221.86 230.629 221.889 230.628C221.917 230.628 221.946 230.627 221.974 230.626C222.003 230.626 222.031 230.625 222.06 230.625C222.088 230.624 222.117 230.624 222.145 230.623C222.174 230.622 222.202 230.622 222.231 230.621C222.259 230.621 222.288 230.62 222.316 230.619C222.345 230.619 222.373 230.618 222.402 230.618C222.43 230.617 222.458 230.616 222.487 230.616C222.515 230.615 222.544 230.615 222.572 230.614C222.601 230.613 222.629 230.613 222.658 230.612C222.686 230.612 222.714 230.611 222.743 230.611C222.771 230.61 222.8 230.609 222.828 230.609C222.856 230.608 222.885 230.608 222.913 230.607C222.942 230.606 222.97 230.606 222.998 230.605C223.027 230.605 223.055 230.604 223.083 230.603C223.112 230.603 223.14 230.602 223.169 230.602C223.197 230.601 223.225 230.601 223.254 230.6C223.282 230.599 223.31 230.599 223.339 230.598C223.367 230.598 223.395 230.597 223.424 230.596C223.452 230.596 223.48 230.595 223.509 230.595C223.537 230.594 223.565 230.593 223.594 230.593C223.622 230.592 223.65 230.592 223.678 230.591C223.707 230.591 223.735 230.59 223.763 230.589C223.792 230.589 223.82 230.588 223.848 230.588C223.876 230.587 223.905 230.586 223.933 230.586C223.961 230.585 223.99 230.585 224.018 230.584C224.046 230.583 224.074 230.583 224.103 230.582C224.131 230.582 224.159 230.581 224.187 230.581C224.216 230.58 224.244 230.579 224.272 230.579C224.3 230.578 224.329 230.578 224.357 230.577C224.385 230.576 224.413 230.576 224.441 230.575C224.47 230.575 224.498 230.574 224.526 230.573C224.554 230.573 224.583 230.572 224.611 230.572C224.639 230.571 224.667 230.571 224.695 230.57C224.724 230.569 224.752 230.569 224.78 230.568C224.808 230.568 224.836 230.567 224.865 230.566C224.893 230.566 224.921 230.565 224.949 230.565C224.977 230.564 225.006 230.564 225.034 230.563C225.062 230.562 225.09 230.562 225.118 230.561C225.146 230.561 225.175 230.56 225.203 230.559C225.231 230.559 225.259 230.558 225.287 230.558C225.315 230.557 225.344 230.557 225.372 230.556C225.4 230.555 225.428 230.555 225.456 230.554C225.484 230.554 225.513 230.553 225.541 230.552C225.569 230.552 225.597 230.551 225.625 230.551C225.653 230.55 225.681 230.549 225.71 230.549C225.738 230.548 225.766 230.548 225.794 230.547C225.822 230.547 225.85 230.546 225.878 230.545C225.907 230.545 225.935 230.544 225.963 230.544C225.991 230.543 226.019 230.542 226.047 230.542C226.075 230.541 226.104 230.541 226.132 230.54C226.16 230.54 226.188 230.539 226.216 230.538C226.244 230.538 226.272 230.537 226.3 230.537C226.329 230.536 226.357 230.535 226.385 230.535C226.413 230.534 226.441 230.534 226.469 230.533C226.497 230.533 226.525 230.532 226.554 230.531C226.582 230.531 226.61 230.53 226.638 230.53C226.666 230.529 226.694 230.528 226.722 230.528C226.75 230.527 226.779 230.527 226.807 230.526C226.835 230.526 226.863 230.525 226.891 230.524C226.919 230.524 226.947 230.523 226.975 230.523C227.004 230.522 227.032 230.521 227.06 230.521C227.088 230.52 227.116 230.52 227.144 230.519C227.172 230.519 227.2 230.518 227.229 230.517C227.257 230.517 227.285 230.516 227.313 230.516C227.341 230.515 227.369 230.514 227.397 230.514C227.425 230.513 227.454 230.513 227.482 230.512C227.51 230.512 227.538 230.511 227.566 230.51C227.594 230.51 227.622 230.509 227.651 230.509C227.679 230.508 227.707 230.507 227.735 230.507C227.763 230.506 227.791 230.506 227.819 230.505C227.847 230.504 227.876 230.504 227.904 230.503C227.932 230.503 227.96 230.502 227.988 230.502C228.016 230.501 228.044 230.5 228.073 230.5C228.101 230.499 228.129 230.499 228.157 230.498C228.185 230.497 228.213 230.497 228.241 230.496C228.27 230.496 228.298 230.495 228.326 230.495C228.354 230.494 228.382 230.493 228.41 230.493C228.439 230.492 228.467 230.492 228.495 230.491C228.523 230.49 228.551 230.49 228.579 230.489C228.608 230.489 228.636 230.488 228.664 230.488C228.692 230.487 228.72 230.486 228.749 230.486C228.777 230.485 228.805 230.485 228.833 230.484C228.861 230.483 228.889 230.483 228.918 230.482C228.946 230.482 228.974 230.481 229.002 230.481C229.03 230.48 229.059 230.479 229.087 230.479C229.115 230.478 229.143 230.478 229.171 230.477C229.2 230.476 229.228 230.476 229.256 230.475C229.284 230.475 229.313 230.474 229.341 230.473C229.369 230.473 229.397 230.472 229.425 230.472C229.454 230.471 229.482 230.471 229.51 230.47C229.538 230.469 229.567 230.469 229.595 230.468C229.623 230.468 229.651 230.467 229.68 230.466C229.708 230.466 229.736 230.465 229.764 230.465C229.793 230.464 229.821 230.464 229.849 230.463C229.877 230.462 229.906 230.462 229.934 230.461C229.962 230.461 229.991 230.46 230.019 230.459C230.047 230.459 230.075 230.458 230.104 230.458C230.132 230.457 230.16 230.456 230.189 230.456C230.217 230.455 230.245 230.455 230.274 230.454C230.302 230.454 230.33 230.453 230.359 230.452C230.387 230.452 230.415 230.451 230.444 230.451C230.472 230.45 230.5 230.449 230.529 230.449C230.557 230.448 230.585 230.448 230.614 230.447C230.642 230.446 230.67 230.446 230.699 230.445C230.727 230.445 230.755 230.444 230.784 230.444C230.812 230.443 230.841 230.442 230.869 230.442C230.897 230.441 230.926 230.441 230.954 230.44C230.983 230.439 231.011 230.439 231.039 230.438C231.068 230.438 231.096 230.437 231.125 230.436C231.153 230.436 231.182 230.435 231.21 230.435C231.238 230.434 231.267 230.433 231.295 230.433C231.324 230.432 231.352 230.432 231.381 230.431C231.409 230.431 231.438 230.43 231.466 230.429C231.495 230.429 231.523 230.428 231.551 230.428C231.58 230.427 231.608 230.426 231.637 230.426C231.665 230.425 231.694 230.425 231.722 230.424C231.751 230.423 231.78 230.423 231.808 230.422C231.837 230.422 231.865 230.421 231.894 230.42C231.922 230.42 231.951 230.419 231.979 230.419C232.008 230.418 232.036 230.417 232.065 230.417C232.094 230.416 232.122 230.416 232.151 230.415C232.179 230.415 232.208 230.414 232.237 230.413C232.265 230.413 232.294 230.412 232.322 230.412C232.351 230.411 232.38 230.41 232.408 230.41C232.437 230.409 232.466 230.409 232.494 230.408C232.523 230.407 232.551 230.407 232.58 230.406C232.609 230.406 232.637 230.405 232.666 230.404C232.695 230.404 232.724 230.403 232.752 230.403C232.781 230.402 232.81 230.401 232.838 230.401C232.867 230.4 232.896 230.4 232.925 230.399C232.953 230.398 232.982 230.398 233.011 230.397C233.039 230.397 233.068 230.396 233.097 230.395C233.126 230.395 233.155 230.394 233.183 230.394C233.212 230.393 233.241 230.392 233.27 230.392C233.299 230.391 233.327 230.391 233.356 230.39C233.385 230.389 233.414 230.389 233.443 230.388C233.471 230.388 233.5 230.387 233.529 230.386C233.558 230.386 233.587 230.385 233.616 230.385C233.645 230.384 233.674 230.383 233.702 230.383C233.731 230.382 233.76 230.382 233.789 230.381C233.818 230.38 233.847 230.38 233.876 230.379C233.905 230.379 233.934 230.378 233.963 230.377C233.992 230.377 234.021 230.376 234.05 230.376C234.079 230.375 234.108 230.374 234.137 230.374C234.166 230.373 234.195 230.373 234.224 230.372C234.253 230.371 234.282 230.371 234.311 230.37C234.34 230.37 234.369 230.369 234.398 230.368C234.427 230.368 234.456 230.367 234.485 230.367C234.514 230.366 234.543 230.365 234.572 230.365C234.601 230.364 234.631 230.364 234.66 230.363C234.689 230.362 234.718 230.362 234.747 230.361C234.776 230.361 234.805 230.36 234.835 230.359C234.864 230.359 234.893 230.358 234.922 230.358C234.951 230.357 234.981 230.356 235.01 230.356C235.039 230.355 235.068 230.355 235.097 230.354C235.127 230.353 235.156 230.353 235.185 230.352C235.214 230.351 235.244 230.351 235.273 230.35C235.302 230.35 235.332 230.349 235.361 230.348C235.39 230.348 235.419 230.347 235.449 230.347C235.478 230.346 235.507 230.345 235.537 230.345C235.566 230.344 235.596 230.344 235.625 230.343C235.654 230.342 235.684 230.342 235.713 230.341C235.742 230.341 235.772 230.34 235.801 230.339C235.831 230.339 235.86 230.338 235.89 230.337C235.919 230.337 235.949 230.336 235.978 230.336C236.008 230.335 236.037 230.334 236.067 230.334C236.096 230.333 236.126 230.333 236.155 230.332C236.185 230.331 236.214 230.331 236.244 230.33C236.273 230.329 236.303 230.329 236.332 230.328C236.362 230.328 236.392 230.327 236.421 230.326C236.451 230.326 236.48 230.325 236.51 230.325C236.54 230.324 236.569 230.323 236.599 230.323C236.629 230.322 236.658 230.321 236.688 230.321C236.718 230.32 236.748 230.32 236.777 230.319C236.807 230.318 236.837 230.318 236.866 230.317C236.896 230.317 236.926 230.316 236.956 230.315C236.986 230.315 237.015 230.314 237.045 230.313C237.075 230.313 237.105 230.312 237.135 230.312C237.164 230.311 237.194 230.31 237.224 230.31C237.254 230.309 237.284 230.308 237.314 230.308C237.344 230.307 237.374 230.307 237.403 230.306C237.433 230.305 237.463 230.305 237.493 230.304C237.523 230.304 237.553 230.303 237.583 230.302C237.613 230.302 237.643 230.301 237.673 230.3C237.703 230.3 237.733 230.299 237.763 230.299C237.793 230.298 237.823 230.297 237.853 230.297C237.883 230.296 237.914 230.295 237.944 230.295C237.974 230.294 238.004 230.294 238.034 230.293C238.064 230.292 238.094 230.292 238.124 230.291C238.155 230.29 238.185 230.29 238.215 230.289C238.245 230.289 238.275 230.288 238.306 230.287C238.336 230.287 238.366 230.286 238.396 230.285C238.427 230.285 238.457 230.284 238.487 230.283C238.517 230.283 238.548 230.282 238.578 230.282C238.608 230.281 238.639 230.28 238.669 230.28C238.699 230.279 238.73 230.278 238.76 230.278C238.791 230.277 238.821 230.277 238.851 230.276C238.882 230.275 238.912 230.275 238.943 230.274C238.973 230.273 239.004 230.273 239.034 230.272C239.065 230.271 239.095 230.271 239.126 230.27C239.156 230.27 239.187 230.269 239.217 230.268C239.248 230.268 239.279 230.267 239.309 230.266C239.34 230.266 239.37 230.265 239.401 230.265C239.432 230.264 239.462 230.263 239.493 230.263C239.524 230.262 239.554 230.261 239.585 230.261C239.616 230.26 239.646 230.259 239.677 230.259C239.708 230.258 239.739 230.257 239.769 230.257C239.8 230.256 239.831 230.256 239.862 230.255C239.892 230.254 239.923 230.254 239.954 230.253C239.985 230.252 240.016 230.252 240.047 230.251C240.078 230.25 240.108 230.25 240.139 230.249C240.17 230.249 240.201 230.248 240.232 230.247C240.263 230.247 240.294 230.246 240.325 230.245C240.356 230.245 240.387 230.244 240.418 230.243C240.449 230.243 240.48 230.242 240.511 230.241C240.542 230.241 240.573 230.24 240.604 230.24C240.636 230.239 240.667 230.238 240.698 230.238C240.729 230.237 240.76 230.236 240.791 230.236C240.823 230.235 240.854 230.234 240.885 230.234C240.916 230.233 240.947 230.232 240.979 230.232C241.01 230.231 241.041 230.23 241.072 230.23C241.104 230.229 241.135 230.228 241.166 230.228C241.198 230.227 241.229 230.227 241.26 230.226C241.292 230.225 241.323 230.225 241.355 230.224C241.386 230.223 241.417 230.223 241.449 230.222C241.48 230.221 241.512 230.221 241.543 230.22C241.575 230.219 241.606 230.219 241.638 230.218C241.669 230.217 241.701 230.217 241.733 230.216C241.764 230.215 241.796 230.215 241.827 230.214C241.859 230.213 241.891 230.213 241.922 230.212C241.954 230.211 241.986 230.211 242.017 230.21C242.049 230.21 242.081 230.209 242.112 230.208C242.144 230.208 242.176 230.207 242.208 230.206C242.239 230.206 242.271 230.205 242.303 230.204C242.335 230.204 242.367 230.203 242.399 230.202C242.43 230.202 242.462 230.201 242.494 230.2C242.526 230.2 242.558 230.199 242.59 230.198C242.622 230.198 242.654 230.197 242.686 230.196C242.718 230.196 242.75 230.195 242.782 230.194C242.814 230.194 242.846 230.193 242.878 230.192C242.91 230.192 242.942 230.191 242.974 230.19C243.007 230.19 243.039 230.189 243.071 230.188C243.103 230.188 243.135 230.187 243.168 230.186C243.2 230.186 243.232 230.185 243.264 230.184C243.296 230.184 243.329 230.183 243.361 230.182C243.393 230.182 243.426 230.181 243.458 230.18C243.49 230.18 243.523 230.179 243.555 230.178C243.588 230.178 243.62 230.177 243.652 230.176C243.685 230.176 243.717 230.175 243.75 230.174C243.782 230.174 243.815 230.173 243.847 230.172C243.88 230.171 243.912 230.171 243.945 230.17C243.978 230.169 244.01 230.169 244.043 230.168C244.075 230.167 244.108 230.167 244.141 230.166C244.173 230.165 244.206 230.165 244.239 230.164C244.271 230.163 244.304 230.163 244.337 230.162C244.37 230.161 244.403 230.161 244.435 230.16C244.468 230.159 244.501 230.159 244.534 230.158C244.567 230.157 244.6 230.157 244.632 230.156C244.665 230.155 244.698 230.154 244.731 230.154C244.764 230.153 244.797 230.152 244.83 230.152C244.863 230.151 244.896 230.15 244.929 230.15C244.962 230.149 244.995 230.148 245.029 230.148C245.062 230.147 245.095 230.146 245.128 230.146C245.161 230.145 245.194 230.144 245.227 230.143C245.261 230.143 245.294 230.142 245.327 230.141C245.36 230.141 245.394 230.14 245.427 230.139C245.46 230.139 245.494 230.138 245.527 230.137C245.56 230.137 245.594 230.136 245.627 230.135C245.66 230.134 245.694 230.134 245.727 230.133C245.761 230.132 245.794 230.132 245.828 230.131C245.861 230.13 245.895 230.13 245.928 230.129C245.962 230.128 245.995 230.128 246.029 230.127C246.063 230.126 246.096 230.125 246.13 230.125C246.164 230.124 246.197 230.123 246.231 230.123C246.265 230.122 246.298 230.121 246.332 230.121C246.366 230.12 246.4 230.119 246.434 230.118C246.467 230.118 246.501 230.117 246.535 230.116C246.569 230.116 246.603 230.115 246.637 230.114C246.671 230.114 246.705 230.113 246.739 230.112C246.773 230.111 246.807 230.111 246.841 230.11C246.875 230.109 246.909 230.109 246.943 230.108C246.977 230.107 247.011 230.106 247.045 230.106C247.079 230.105 247.113 230.104 247.147 230.104C247.182 230.103 247.216 230.102 247.25 230.101C247.284 230.101 247.319 230.1 247.353 230.099C247.387 230.099 247.422 230.098 247.456 230.097C247.49 230.096 247.525 230.096 247.559 230.095C247.593 230.094 247.628 230.094 247.662 230.093C247.697 230.092 247.731 230.091 247.766 230.091C247.8 230.09 247.835 230.089 247.869 230.089C247.904 230.088 247.939 230.087 247.973 230.086C248.008 230.086 248.042 230.085 248.077 230.084C248.112 230.084 248.146 230.083 248.181 230.082C248.216 230.081 248.251 230.081 248.286 230.08C248.32 230.079 248.355 230.079 248.39 230.078C248.425 230.077 248.46 230.076 248.495 230.076C248.53 230.075 248.564 230.074 248.599 230.073C248.634 230.073 248.669 230.072 248.704 230.071C248.739 230.071 248.775 230.07 248.81 230.069C248.845 230.068 248.88 230.068 248.915 230.067C248.95 230.066 248.985 230.065 249.02 230.065C249.056 230.064 249.091 230.063 249.126 230.062C249.161 230.062 249.197 230.061 249.232 230.06C249.267 230.06 249.303 230.059 249.338 230.058C249.373 230.057 249.409 230.057 249.444 230.056C249.48 230.055 249.515 230.054 249.551 230.054C249.586 230.053 249.622 230.052 249.657 230.051C249.693 230.051 249.728 230.05 249.764 230.049C249.8 230.049 249.835 230.048 249.871 230.047C249.907 230.046 249.942 230.046 249.978 230.045C250.014 230.044 250.049 230.043 250.085 230.043C250.121 230.042 250.157 230.041 250.193 230.04C250.229 230.04 250.264 230.039 250.3 230.038C250.336 230.037 250.372 230.037 250.408 230.036C250.444 230.035 250.48 230.034 250.516 230.034L250.146 210.037L249.776 190.04C249.74 190.041 249.704 190.042 249.668 190.043C249.632 190.043 249.596 190.044 249.56 190.045C249.524 190.046 249.488 190.046 249.452 190.047C249.417 190.048 249.381 190.049 249.345 190.049C249.309 190.05 249.273 190.051 249.238 190.052C249.202 190.052 249.166 190.053 249.131 190.054C249.095 190.055 249.059 190.055 249.024 190.056C248.988 190.057 248.952 190.058 248.917 190.058C248.881 190.059 248.846 190.06 248.81 190.061C248.775 190.061 248.739 190.062 248.704 190.063C248.669 190.063 248.633 190.064 248.598 190.065C248.562 190.066 248.527 190.066 248.492 190.067C248.456 190.068 248.421 190.069 248.386 190.069C248.351 190.07 248.315 190.071 248.28 190.072C248.245 190.072 248.21 190.073 248.175 190.074C248.14 190.074 248.104 190.075 248.069 190.076C248.034 190.077 247.999 190.077 247.964 190.078C247.929 190.079 247.894 190.08 247.859 190.08C247.824 190.081 247.789 190.082 247.754 190.082C247.719 190.083 247.685 190.084 247.65 190.085C247.615 190.085 247.58 190.086 247.545 190.087C247.51 190.088 247.476 190.088 247.441 190.089C247.406 190.09 247.372 190.09 247.337 190.091C247.302 190.092 247.268 190.093 247.233 190.093C247.198 190.094 247.164 190.095 247.129 190.095C247.095 190.096 247.06 190.097 247.025 190.098C246.991 190.098 246.956 190.099 246.922 190.1C246.888 190.1 246.853 190.101 246.819 190.102C246.784 190.103 246.75 190.103 246.716 190.104C246.681 190.105 246.647 190.105 246.613 190.106C246.578 190.107 246.544 190.108 246.51 190.108C246.476 190.109 246.441 190.11 246.407 190.11C246.373 190.111 246.339 190.112 246.305 190.113C246.271 190.113 246.237 190.114 246.202 190.115C246.168 190.115 246.134 190.116 246.1 190.117C246.066 190.118 246.032 190.118 245.998 190.119C245.964 190.12 245.93 190.12 245.896 190.121C245.863 190.122 245.829 190.122 245.795 190.123C245.761 190.124 245.727 190.125 245.693 190.125C245.659 190.126 245.626 190.127 245.592 190.127C245.558 190.128 245.524 190.129 245.491 190.129C245.457 190.13 245.423 190.131 245.39 190.132C245.356 190.132 245.322 190.133 245.289 190.134C245.255 190.134 245.222 190.135 245.188 190.136C245.155 190.136 245.121 190.137 245.087 190.138C245.054 190.139 245.021 190.139 244.987 190.14C244.954 190.141 244.92 190.141 244.887 190.142C244.853 190.143 244.82 190.143 244.787 190.144C244.753 190.145 244.72 190.145 244.687 190.146C244.653 190.147 244.62 190.148 244.587 190.148C244.554 190.149 244.52 190.15 244.487 190.15C244.454 190.151 244.421 190.152 244.388 190.152C244.355 190.153 244.321 190.154 244.288 190.154C244.255 190.155 244.222 190.156 244.189 190.157C244.156 190.157 244.123 190.158 244.09 190.159C244.057 190.159 244.024 190.16 243.991 190.161C243.958 190.161 243.925 190.162 243.892 190.163C243.859 190.163 243.826 190.164 243.794 190.165C243.761 190.165 243.728 190.166 243.695 190.167C243.662 190.167 243.63 190.168 243.597 190.169C243.564 190.17 243.531 190.17 243.499 190.171C243.466 190.172 243.433 190.172 243.4 190.173C243.368 190.174 243.335 190.174 243.303 190.175C243.27 190.176 243.237 190.176 243.205 190.177C243.172 190.178 243.14 190.178 243.107 190.179C243.075 190.18 243.042 190.18 243.01 190.181C242.977 190.182 242.945 190.182 242.912 190.183C242.88 190.184 242.847 190.184 242.815 190.185C242.783 190.186 242.75 190.186 242.718 190.187C242.685 190.188 242.653 190.188 242.621 190.189C242.589 190.19 242.556 190.19 242.524 190.191C242.492 190.192 242.459 190.192 242.427 190.193C242.395 190.194 242.363 190.194 242.331 190.195C242.299 190.196 242.266 190.196 242.234 190.197C242.202 190.198 242.17 190.198 242.138 190.199C242.106 190.2 242.074 190.2 242.042 190.201C242.01 190.202 241.978 190.202 241.946 190.203C241.914 190.204 241.882 190.204 241.85 190.205C241.818 190.206 241.786 190.206 241.754 190.207C241.722 190.208 241.69 190.208 241.658 190.209C241.627 190.21 241.595 190.21 241.563 190.211C241.531 190.212 241.499 190.212 241.467 190.213C241.436 190.214 241.404 190.214 241.372 190.215C241.34 190.216 241.309 190.216 241.277 190.217C241.245 190.218 241.214 190.218 241.182 190.219C241.15 190.22 241.119 190.22 241.087 190.221C241.055 190.222 241.024 190.222 240.992 190.223C240.961 190.224 240.929 190.224 240.898 190.225C240.866 190.226 240.835 190.226 240.803 190.227C240.772 190.228 240.74 190.228 240.709 190.229C240.677 190.229 240.646 190.23 240.614 190.231C240.583 190.231 240.552 190.232 240.52 190.233C240.489 190.233 240.457 190.234 240.426 190.235C240.395 190.235 240.364 190.236 240.332 190.237C240.301 190.237 240.27 190.238 240.238 190.239C240.207 190.239 240.176 190.24 240.145 190.241C240.113 190.241 240.082 190.242 240.051 190.242C240.02 190.243 239.989 190.244 239.958 190.244C239.926 190.245 239.895 190.246 239.864 190.246C239.833 190.247 239.802 190.248 239.771 190.248C239.74 190.249 239.709 190.25 239.678 190.25C239.647 190.251 239.616 190.252 239.585 190.252C239.554 190.253 239.523 190.253 239.492 190.254C239.461 190.255 239.43 190.255 239.399 190.256C239.368 190.257 239.337 190.257 239.306 190.258C239.276 190.259 239.245 190.259 239.214 190.26C239.183 190.261 239.152 190.261 239.121 190.262C239.091 190.262 239.06 190.263 239.029 190.264C238.998 190.264 238.968 190.265 238.937 190.266C238.906 190.266 238.875 190.267 238.845 190.268C238.814 190.268 238.783 190.269 238.753 190.269C238.722 190.27 238.691 190.271 238.661 190.271C238.63 190.272 238.599 190.273 238.569 190.273C238.538 190.274 238.508 190.275 238.477 190.275C238.447 190.276 238.416 190.276 238.386 190.277C238.355 190.278 238.324 190.278 238.294 190.279C238.263 190.28 238.233 190.28 238.203 190.281C238.172 190.282 238.142 190.282 238.111 190.283C238.081 190.283 238.05 190.284 238.02 190.285C237.99 190.285 237.959 190.286 237.929 190.287C237.899 190.287 237.868 190.288 237.838 190.288C237.808 190.289 237.777 190.29 237.747 190.29C237.717 190.291 237.686 190.292 237.656 190.292C237.626 190.293 237.596 190.293 237.565 190.294C237.535 190.295 237.505 190.295 237.475 190.296C237.445 190.297 237.414 190.297 237.384 190.298C237.354 190.298 237.324 190.299 237.294 190.3C237.264 190.3 237.234 190.301 237.203 190.302C237.173 190.302 237.143 190.303 237.113 190.304C237.083 190.304 237.053 190.305 237.023 190.305C236.993 190.306 236.963 190.307 236.933 190.307C236.903 190.308 236.873 190.308 236.843 190.309C236.813 190.31 236.783 190.31 236.753 190.311C236.723 190.312 236.693 190.312 236.663 190.313C236.633 190.313 236.603 190.314 236.574 190.315C236.544 190.315 236.514 190.316 236.484 190.317C236.454 190.317 236.424 190.318 236.394 190.318C236.364 190.319 236.335 190.32 236.305 190.32C236.275 190.321 236.245 190.322 236.215 190.322C236.186 190.323 236.156 190.323 236.126 190.324C236.096 190.325 236.067 190.325 236.037 190.326C236.007 190.326 235.978 190.327 235.948 190.328C235.918 190.328 235.889 190.329 235.859 190.33C235.829 190.33 235.8 190.331 235.77 190.331C235.74 190.332 235.711 190.333 235.681 190.333C235.651 190.334 235.622 190.334 235.592 190.335C235.563 190.336 235.533 190.336 235.504 190.337C235.474 190.338 235.444 190.338 235.415 190.339C235.385 190.339 235.356 190.34 235.326 190.341C235.297 190.341 235.267 190.342 235.238 190.342C235.208 190.343 235.179 190.344 235.149 190.344C235.12 190.345 235.091 190.346 235.061 190.346C235.032 190.347 235.002 190.347 234.973 190.348C234.943 190.349 234.914 190.349 234.885 190.35C234.855 190.35 234.826 190.351 234.797 190.352C234.767 190.352 234.738 190.353 234.709 190.353C234.679 190.354 234.65 190.355 234.621 190.355C234.591 190.356 234.562 190.356 234.533 190.357C234.503 190.358 234.474 190.358 234.445 190.359C234.416 190.36 234.386 190.36 234.357 190.361C234.328 190.361 234.299 190.362 234.269 190.363C234.24 190.363 234.211 190.364 234.182 190.364C234.153 190.365 234.124 190.366 234.094 190.366C234.065 190.367 234.036 190.367 234.007 190.368C233.978 190.369 233.949 190.369 233.919 190.37C233.89 190.37 233.861 190.371 233.832 190.372C233.803 190.372 233.774 190.373 233.745 190.373C233.716 190.374 233.687 190.375 233.658 190.375C233.629 190.376 233.6 190.376 233.571 190.377C233.541 190.378 233.512 190.378 233.483 190.379C233.454 190.38 233.425 190.38 233.396 190.381C233.367 190.381 233.338 190.382 233.309 190.383C233.28 190.383 233.252 190.384 233.223 190.384C233.194 190.385 233.165 190.386 233.136 190.386C233.107 190.387 233.078 190.387 233.049 190.388C233.02 190.389 232.991 190.389 232.962 190.39C232.933 190.39 232.904 190.391 232.876 190.392C232.847 190.392 232.818 190.393 232.789 190.393C232.76 190.394 232.731 190.395 232.702 190.395C232.674 190.396 232.645 190.396 232.616 190.397C232.587 190.398 232.558 190.398 232.529 190.399C232.501 190.399 232.472 190.4 232.443 190.401C232.414 190.401 232.386 190.402 232.357 190.402C232.328 190.403 232.299 190.403 232.271 190.404C232.242 190.405 232.213 190.405 232.184 190.406C232.156 190.406 232.127 190.407 232.098 190.408C232.069 190.408 232.041 190.409 232.012 190.409C231.983 190.41 231.955 190.411 231.926 190.411C231.897 190.412 231.869 190.412 231.84 190.413C231.811 190.414 231.783 190.414 231.754 190.415C231.725 190.415 231.697 190.416 231.668 190.417C231.639 190.417 231.611 190.418 231.582 190.418C231.554 190.419 231.525 190.42 231.496 190.42C231.468 190.421 231.439 190.421 231.411 190.422C231.382 190.423 231.353 190.423 231.325 190.424C231.296 190.424 231.268 190.425 231.239 190.426C231.211 190.426 231.182 190.427 231.153 190.427C231.125 190.428 231.096 190.428 231.068 190.429C231.039 190.43 231.011 190.43 230.982 190.431C230.954 190.431 230.925 190.432 230.897 190.433C230.868 190.433 230.84 190.434 230.811 190.434C230.783 190.435 230.754 190.436 230.726 190.436C230.697 190.437 230.669 190.437 230.64 190.438C230.612 190.439 230.583 190.439 230.555 190.44C230.527 190.44 230.498 190.441 230.47 190.442C230.441 190.442 230.413 190.443 230.384 190.443C230.356 190.444 230.328 190.444 230.299 190.445C230.271 190.446 230.242 190.446 230.214 190.447C230.186 190.447 230.157 190.448 230.129 190.449C230.1 190.449 230.072 190.45 230.044 190.45C230.015 190.451 229.987 190.452 229.958 190.452C229.93 190.453 229.902 190.453 229.873 190.454C229.845 190.454 229.817 190.455 229.788 190.456C229.76 190.456 229.732 190.457 229.703 190.457C229.675 190.458 229.647 190.459 229.618 190.459C229.59 190.46 229.562 190.46 229.533 190.461C229.505 190.462 229.477 190.462 229.448 190.463C229.42 190.463 229.392 190.464 229.364 190.464C229.335 190.465 229.307 190.466 229.279 190.466C229.25 190.467 229.222 190.467 229.194 190.468C229.166 190.469 229.137 190.469 229.109 190.47C229.081 190.47 229.052 190.471 229.024 190.472C228.996 190.472 228.968 190.473 228.939 190.473C228.911 190.474 228.883 190.474 228.855 190.475C228.826 190.476 228.798 190.476 228.77 190.477C228.742 190.477 228.713 190.478 228.685 190.479C228.657 190.479 228.629 190.48 228.601 190.48C228.572 190.481 228.544 190.481 228.516 190.482C228.488 190.483 228.459 190.483 228.431 190.484C228.403 190.484 228.375 190.485 228.347 190.486C228.318 190.486 228.29 190.487 228.262 190.487C228.234 190.488 228.206 190.489 228.177 190.489C228.149 190.49 228.121 190.49 228.093 190.491C228.065 190.491 228.036 190.492 228.008 190.493C227.98 190.493 227.952 190.494 227.924 190.494C227.896 190.495 227.867 190.496 227.839 190.496C227.811 190.497 227.783 190.497 227.755 190.498C227.727 190.498 227.698 190.499 227.67 190.5C227.642 190.5 227.614 190.501 227.586 190.501C227.558 190.502 227.529 190.503 227.501 190.503C227.473 190.504 227.445 190.504 227.417 190.505C227.389 190.505 227.361 190.506 227.332 190.507C227.304 190.507 227.276 190.508 227.248 190.508C227.22 190.509 227.192 190.51 227.164 190.51C227.135 190.511 227.107 190.511 227.079 190.512C227.051 190.513 227.023 190.513 226.995 190.514C226.967 190.514 226.938 190.515 226.91 190.515C226.882 190.516 226.854 190.517 226.826 190.517C226.798 190.518 226.77 190.518 226.741 190.519C226.713 190.52 226.685 190.52 226.657 190.521C226.629 190.521 226.601 190.522 226.573 190.522C226.545 190.523 226.516 190.524 226.488 190.524C226.46 190.525 226.432 190.525 226.404 190.526C226.376 190.527 226.348 190.527 226.32 190.528C226.291 190.528 226.263 190.529 226.235 190.529C226.207 190.53 226.179 190.531 226.151 190.531C226.123 190.532 226.095 190.532 226.066 190.533C226.038 190.534 226.01 190.534 225.982 190.535C225.954 190.535 225.926 190.536 225.898 190.536C225.87 190.537 225.842 190.538 225.813 190.538C225.785 190.539 225.757 190.539 225.729 190.54C225.701 190.541 225.673 190.541 225.645 190.542C225.616 190.542 225.588 190.543 225.56 190.543C225.532 190.544 225.504 190.545 225.476 190.545C225.448 190.546 225.42 190.546 225.391 190.547C225.363 190.548 225.335 190.548 225.307 190.549C225.279 190.549 225.251 190.55 225.223 190.55C225.195 190.551 225.166 190.552 225.138 190.552C225.11 190.553 225.082 190.553 225.054 190.554C225.026 190.555 224.998 190.555 224.969 190.556C224.941 190.556 224.913 190.557 224.885 190.558C224.857 190.558 224.829 190.559 224.8 190.559C224.772 190.56 224.744 190.56 224.716 190.561C224.688 190.562 224.66 190.562 224.632 190.563C224.603 190.563 224.575 190.564 224.547 190.565C224.519 190.565 224.491 190.566 224.463 190.566C224.434 190.567 224.406 190.567 224.378 190.568C224.35 190.569 224.322 190.569 224.293 190.57C224.265 190.57 224.237 190.571 224.209 190.572C224.181 190.572 224.153 190.573 224.124 190.573C224.096 190.574 224.068 190.574 224.04 190.575C224.012 190.576 223.983 190.576 223.955 190.577C223.927 190.577 223.899 190.578 223.871 190.579C223.842 190.579 223.814 190.58 223.786 190.58C223.758 190.581 223.729 190.582 223.701 190.582C223.673 190.583 223.645 190.583 223.617 190.584C223.588 190.584 223.56 190.585 223.532 190.586C223.504 190.586 223.475 190.587 223.447 190.587C223.419 190.588 223.391 190.589 223.362 190.589C223.334 190.59 223.306 190.59 223.278 190.591C223.249 190.591 223.221 190.592 223.193 190.593C223.165 190.593 223.136 190.594 223.108 190.594C223.08 190.595 223.051 190.596 223.023 190.596C222.995 190.597 222.967 190.597 222.938 190.598C222.91 190.599 222.882 190.599 222.853 190.6C222.825 190.6 222.797 190.601 222.768 190.601C222.74 190.602 222.712 190.603 222.683 190.603C222.655 190.604 222.627 190.604 222.598 190.605C222.57 190.606 222.542 190.606 222.513 190.607C222.485 190.607 222.457 190.608 222.428 190.609C222.4 190.609 222.372 190.61 222.343 190.61C222.315 190.611 222.287 190.611 222.258 190.612C222.23 190.613 222.201 190.613 222.173 190.614C222.145 190.614 222.116 190.615 222.088 190.616C222.059 190.616 222.031 190.617 222.003 190.617C221.974 190.618 221.946 190.619 221.917 190.619C221.889 190.62 221.86 190.62 221.832 190.621C221.804 190.622 221.775 190.622 221.747 190.623C221.718 190.623 221.69 190.624 221.661 190.624C221.633 190.625 221.604 190.626 221.576 190.626C221.547 190.627 221.519 190.627 221.49 190.628C221.462 190.629 221.433 190.629 221.405 190.63C221.376 190.63 221.348 190.631 221.319 190.632C221.291 190.632 221.262 190.633 221.234 190.633C221.205 190.634 221.177 190.635 221.148 190.635C221.12 190.636 221.091 190.636 221.063 190.637C221.034 190.637 221.006 190.638 220.977 190.639C220.948 190.639 220.92 190.64 220.891 190.64C220.863 190.641 220.834 190.642 220.805 190.642C220.777 190.643 220.748 190.643 220.72 190.644C220.691 190.645 220.662 190.645 220.634 190.646C220.605 190.646 220.576 190.647 220.548 190.648C220.519 190.648 220.49 190.649 220.462 190.649C220.433 190.65 220.404 190.651 220.376 190.651C220.347 190.652 220.318 190.652 220.29 190.653C220.261 190.654 220.232 190.654 220.204 190.655C220.175 190.655 220.146 190.656 220.117 190.657C220.089 190.657 220.06 190.658 220.031 190.658C220.002 190.659 219.974 190.66 219.945 190.66C219.916 190.661 219.887 190.661 219.859 190.662C219.83 190.663 219.801 190.663 219.772 190.664C219.743 190.664 219.715 190.665 219.686 190.666C219.657 190.666 219.628 190.667 219.599 190.667C219.57 190.668 219.542 190.668 219.513 190.669C219.484 190.67 219.455 190.67 219.426 190.671C219.397 190.671 219.368 190.672 219.34 190.673C219.311 190.673 219.282 190.674 219.253 190.674C219.224 190.675 219.195 190.676 219.166 190.676C219.137 190.677 219.108 190.678 219.079 190.678C219.05 190.679 219.021 190.679 218.992 190.68C218.963 190.681 218.934 190.681 218.905 190.682C218.876 190.682 218.847 190.683 218.818 190.684C218.789 190.684 218.76 190.685 218.731 190.685C218.702 190.686 218.673 190.687 218.644 190.687C218.615 190.688 218.586 190.688 218.557 190.689C218.528 190.69 218.499 190.69 218.47 190.691C218.441 190.691 218.411 190.692 218.382 190.693C218.353 190.693 218.324 190.694 218.295 190.694C218.266 190.695 218.237 190.696 218.207 190.696C218.178 190.697 218.149 190.697 218.12 190.698C218.091 190.699 218.061 190.699 218.032 190.7C218.003 190.7 217.974 190.701 217.945 190.702C217.915 190.702 217.886 190.703 217.857 190.703C217.828 190.704 217.798 190.705 217.769 190.705C217.74 190.706 217.71 190.707 217.681 190.707C217.652 190.708 217.623 190.708 217.593 190.709C217.564 190.71 217.535 190.71 217.505 190.711C217.476 190.711 217.446 190.712 217.417 190.713C217.388 190.713 217.358 190.714 217.329 190.714C217.299 190.715 217.27 190.716 217.241 190.716C217.211 190.717 217.182 190.718 217.152 190.718C217.123 190.719 217.093 190.719 217.064 190.72C217.034 190.721 217.005 190.721 216.975 190.722C216.946 190.722 216.916 190.723 216.887 190.724C216.857 190.724 216.828 190.725 216.798 190.725C216.769 190.726 216.739 190.727 216.71 190.727C216.68 190.728 216.65 190.729 216.621 190.729C216.591 190.73 216.561 190.73 216.532 190.731C216.502 190.732 216.473 190.732 216.443 190.733C216.413 190.733 216.384 190.734 216.354 190.735C216.324 190.735 216.294 190.736 216.265 190.737C216.235 190.737 216.205 190.738 216.176 190.738C216.146 190.739 216.116 190.74 216.086 190.74C216.056 190.741 216.027 190.742 215.997 190.742C215.967 190.743 215.937 190.743 215.907 190.744C215.878 190.745 215.848 190.745 215.818 190.746C215.788 190.746 215.758 190.747 215.728 190.748C215.698 190.748 215.668 190.749 215.639 190.75C215.609 190.75 215.579 190.751 215.549 190.751C215.519 190.752 215.489 190.753 215.459 190.753C215.429 190.754 215.399 190.755 215.369 190.755C215.339 190.756 215.309 190.756 215.279 190.757C215.249 190.758 215.219 190.758 215.189 190.759C215.159 190.76 215.128 190.76 215.098 190.761C215.068 190.761 215.038 190.762 215.008 190.763C214.978 190.763 214.948 190.764 214.918 190.765C214.887 190.765 214.857 190.766 214.827 190.766C214.797 190.767 214.767 190.768 214.736 190.768C214.706 190.769 214.676 190.77 214.646 190.77C214.615 190.771 214.585 190.771 214.555 190.772C214.524 190.773 214.494 190.773 214.464 190.774C214.434 190.775 214.403 190.775 214.373 190.776C214.342 190.776 214.312 190.777 214.282 190.778C214.251 190.778 214.221 190.779 214.19 190.78C214.16 190.78 214.13 190.781 214.099 190.782C214.069 190.782 214.038 190.783 214.008 190.783C213.977 190.784 213.947 190.785 213.916 190.785C213.886 190.786 213.855 190.787 213.825 190.787C213.794 190.788 213.763 190.789 213.733 190.789C213.702 190.79 213.672 190.79 213.641 190.791C213.61 190.792 213.58 190.792 213.549 190.793C213.518 190.794 213.488 190.794 213.457 190.795C213.426 190.796 213.396 190.796 213.365 190.797C213.334 190.797 213.303 190.798 213.273 190.799C213.242 190.799 213.211 190.8 213.18 190.801C213.149 190.801 213.119 190.802 213.088 190.803C213.057 190.803 213.026 190.804 212.995 190.804C212.964 190.805 212.933 190.806 212.903 190.806C212.872 190.807 212.841 190.808 212.81 190.808C212.779 190.809 212.748 190.81 212.717 190.81C212.686 190.811 212.655 190.812 212.624 190.812C212.593 190.813 212.562 190.813 212.531 190.814C212.5 190.815 212.469 190.815 212.437 190.816C212.406 190.817 212.375 190.817 212.344 190.818C212.313 190.819 212.282 190.819 212.251 190.82C212.219 190.821 212.188 190.821 212.157 190.822C212.126 190.823 212.095 190.823 212.063 190.824C212.032 190.824 212.001 190.825 211.97 190.826C211.938 190.826 211.907 190.827 211.876 190.828C211.844 190.828 211.813 190.829 211.782 190.83C211.75 190.83 211.719 190.831 211.687 190.832C211.656 190.832 211.625 190.833 211.593 190.834C211.562 190.834 211.53 190.835 211.499 190.836C211.467 190.836 211.436 190.837 211.404 190.838C211.373 190.838 211.341 190.839 211.309 190.839C211.278 190.84 211.246 190.841 211.215 190.841C211.183 190.842 211.151 190.843 211.12 190.843C211.088 190.844 211.056 190.845 211.025 190.845C210.993 190.846 210.961 190.847 210.93 190.847C210.898 190.848 210.866 190.849 210.834 190.849C210.803 190.85 210.771 190.851 210.739 190.851C210.707 190.852 210.675 190.853 210.643 190.853C210.612 190.854 210.58 190.855 210.548 190.855C210.516 190.856 210.484 190.857 210.452 190.857C210.42 190.858 210.388 190.859 210.356 190.859C210.324 190.86 210.292 190.861 210.26 190.861C210.228 190.862 210.196 190.863 210.164 190.863C210.132 190.864 210.1 190.865 210.067 190.865C210.035 190.866 210.003 190.867 209.971 190.867C209.939 190.868 209.907 190.869 209.874 190.869C209.842 190.87 209.81 190.871 209.778 190.871C209.746 190.872 209.713 190.873 209.681 190.873C209.649 190.874 209.616 190.875 209.584 190.875C209.552 190.876 209.519 190.877 209.487 190.877C209.454 190.878 209.422 190.879 209.39 190.879C209.357 190.88 209.325 190.881 209.292 190.881C209.26 190.882 209.227 190.883 209.195 190.883C209.162 190.884 209.13 190.885 209.097 190.885C209.064 190.886 209.032 190.887 208.999 190.887C208.967 190.888 208.934 190.889 208.901 190.89C208.869 190.89 208.836 190.891 208.803 190.892C208.77 190.892 208.738 190.893 208.705 190.894C208.672 190.894 208.639 190.895 208.607 190.896C208.574 190.896 208.541 190.897 208.508 190.898C208.475 190.898 208.442 190.899 208.409 190.9C208.377 190.9 208.344 190.901 208.311 190.902C208.278 190.902 208.245 190.903 208.212 190.904C208.179 190.905 208.146 190.905 208.113 190.906C208.08 190.907 208.047 190.907 208.013 190.908C207.98 190.909 207.947 190.909 207.914 190.91C207.881 190.911 207.848 190.911 207.815 190.912C207.781 190.913 207.748 190.913 207.715 190.914C207.682 190.915 207.648 190.916 207.615 190.916C207.582 190.917 207.548 190.918 207.515 190.918C207.482 190.919 207.448 190.92 207.415 190.92C207.382 190.921 207.348 190.922 207.315 190.922C207.281 190.923 207.248 190.924 207.214 190.925C207.181 190.925 207.147 190.926 207.114 190.927C207.08 190.927 207.047 190.928 207.013 190.929C206.979 190.929 206.946 190.93 206.912 190.931C206.878 190.932 206.845 190.932 206.811 190.933C206.777 190.934 206.744 190.934 206.71 190.935C206.676 190.936 206.642 190.936 206.608 190.937C206.575 190.938 206.541 190.939 206.507 190.939C206.473 190.94 206.439 190.941 206.405 190.941C206.371 190.942 206.337 190.943 206.303 190.943C206.269 190.944 206.235 190.945 206.201 190.946C206.167 190.946 206.133 190.947 206.099 190.948C206.065 190.948 206.031 190.949 205.997 190.95C205.963 190.951 205.929 190.951 205.895 190.952C205.86 190.953 205.826 190.953 205.792 190.954C205.758 190.955 205.723 190.956 205.689 190.956C205.655 190.957 205.62 190.958 205.586 190.958C205.552 190.959 205.517 190.96 205.483 190.961C205.449 190.961 205.414 190.962 205.38 190.963C205.345 190.963 205.311 190.964 205.276 190.965C205.242 190.966 205.207 190.966 205.173 190.967C205.138 190.968 205.103 190.968 205.069 190.969C205.034 190.97 205 190.971 204.965 190.971C204.93 190.972 204.895 190.973 204.861 190.973C204.826 190.974 204.791 190.975 204.756 190.976C204.722 190.976 204.687 190.977 204.652 190.978C204.617 190.979 204.582 190.979 204.547 190.98C204.512 190.981 204.477 190.981 204.443 190.982C204.408 190.983 204.373 190.984 204.338 190.984C204.303 190.985 204.267 190.986 204.232 190.986C204.197 190.987 204.162 190.988 204.127 190.989C204.092 190.989 204.057 190.99 204.022 190.991C203.986 190.992 203.951 190.992 203.916 190.993C203.881 190.994 203.845 190.995 203.81 190.995C203.775 190.996 203.739 190.997 203.704 190.997C203.669 190.998 203.633 190.999 203.598 191C203.562 191 203.527 191.001 203.491 191.002C203.456 191.003 203.42 191.003 203.385 191.004C203.349 191.005 203.314 191.006 203.278 191.006C203.242 191.007 203.207 191.008 203.171 191.009C203.135 191.009 203.1 191.01 203.064 191.011C203.028 191.012 202.993 191.012 202.957 191.013C202.921 191.014 202.885 191.014 202.849 191.015C202.813 191.016 202.778 191.017 202.742 191.017C202.706 191.018 202.67 191.019 202.634 191.02C202.598 191.02 202.562 191.021 202.526 191.022L202.896 211.019Z" fill="#1E1E1E"/>
<ellipse cx="202.5" cy="157.287" rx="18.5" ry="19.6483" fill="#1E1E1E"/>
<defs>
<filter id="filter0_d_16_23" x="21.6222" y="37.0675" width="214.379" height="303.858" filterUnits="userSpaceOnUse" color-interpolation-filters="sRGB">
<feFlood flood-opacity="0" result="BackgroundImageFix"/>
<feColorMatrix in="SourceAlpha" type="matrix" values="0 0 0 0 0 0 0 0 0 0 0 0 0 0 0 0 0 0 127 0" result="hardAlpha"/>
<feOffset dy="4"/>
<feGaussianBlur stdDeviation="2"/>
<feComposite in2="hardAlpha" operator="out"/>
<feColorMatrix type="matrix" values="0 0 0 0 0 0 0 0 0 0 0 0 0 0 0 0 0 0 0.25 0"/>
<feBlend mode="normal" in2="BackgroundImageFix" result="effect1_dropShadow_16_23"/>
<feBlend mode="normal" in="SourceGraphic" in2="effect1_dropShadow_16_23" result="shape"/>
</filter>
</defs>
</svg>
